<?xml version="1.0" encoding="UTF-8" standalone="no"?>
<svg
   version="1.1"
   viewBox="0 0 180 180"
   id="svg1"
   width="180"
   height="180"
   sodipodi:docname="icon.svg"
   inkscape:version="1.4.3 (0d15f75, 2025-12-25)"
   xmlns:inkscape="http://www.inkscape.org/namespaces/inkscape"
   xmlns:sodipodi="http://sodipodi.sourceforge.net/DTD/sodipodi-0.dtd"
   xmlns="http://www.w3.org/2000/svg"
   xmlns:svg="http://www.w3.org/2000/svg">
  <sodipodi:namedview
     id="namedview1"
     pagecolor="#ffffff"
     bordercolor="#000000"
     borderopacity="0.25"
     inkscape:showpageshadow="2"
     inkscape:pageopacity="0.0"
     inkscape:pagecheckerboard="0"
     inkscape:deskcolor="#d1d1d1"
     inkscape:zoom="4.22"
     inkscape:cx="89.92891"
     inkscape:cy="89.92891"
     inkscape:window-width="1920"
     inkscape:window-height="1022"
     inkscape:window-x="0"
     inkscape:window-y="30"
     inkscape:window-maximized="0"
     inkscape:current-layer="svg1" />
  <defs
     id="defs1" />
  <path
     d="m 89.803314,0.35928379 c -3.19614,0.04559 -6.38088,0.90542901 -9.1504,2.50275201 L 19.210733,38.337406 c -2.82554,1.63156 -5.21289,4.01816 -6.84392,6.84414 -1.63164,2.82591 -2.5030505,6.08385 -2.5027505,9.34712 v 70.943974 c -2.8e-4,3.26289 0.8717105,6.52091 2.5027505,9.34712 1.63126,2.82584 4.01823,5.21236 6.84392,6.8443 l 61.442181,35.47462 c 2.82553,1.63118 6.08423,2.50298 9.34712,2.50298 3.2629,0 6.52099,-0.87173 9.347124,-2.50298 l 61.442182,-35.47462 c 2.82554,-1.63186 5.21289,-4.01816 6.84385,-6.8443 1.63163,-2.82584 2.50305,-6.08385 2.50275,-9.34712 0,0 -3.7e-4,-26.938455 -3.7e-4,-70.943744 1.9e-4,-3.26297 -0.87172,-6.52099 -2.50275,-9.34712 -1.63127,-2.82569 -4.01831,-5.21251 -6.84407,-6.84407 L 99.346568,2.8623358 c -2.697894,-1.556702 -5.790204,-2.42361401 -8.904134,-2.49659501 -0.21241,-0.0047 -0.42677,-0.0083 -0.64008,-0.0072 z"
     fill="#f63f0e"
     stroke-width="9.11812"
     id="path2"
     sodipodi:nodetypes="cccccccccsccccccccccc"
     style="fill:#ffffff;fill-opacity:1" />
  <path
     d="m 89.803323,0.35928494 c -3.196146,0.04559 -6.380881,0.90542896 -9.150404,2.50275196 L 19.210731,38.337405 c -2.82553,1.63156 -5.21288,4.018158 -6.84392,6.844145 -1.63163,2.82591 -2.5030505,6.08385 -2.5027505,9.347121 v 70.943969 c -2.7e-4,3.26289 0.8717205,6.52091 2.5027505,9.34712 1.63127,2.82584 4.01824,5.21236 6.84392,6.8443 l 61.442187,35.47462 c 2.825535,1.63118 6.084226,2.50298 9.347123,2.50298 3.262895,0 6.520987,-0.87173 9.347122,-2.50298 l 61.442177,-35.47462 c 2.82554,-1.63186 5.21289,-4.01816 6.84385,-6.8443 1.63163,-2.82584 2.50305,-6.08385 2.50275,-9.34712 V 64.108552 c -18.83915,24.54624 -41.01351,45.231678 -60.62603,56.494188 -13.642634,7.83419 -25.187444,12.93535 -41.843928,13.36858 -8.424352,-0.40485 -14.657012,-3.61917 -18.699502,-9.65422 -4.04294,-6.03474 -6.12027,-13.03145 -6.22921,-20.99329 0.0456,-10.321695 3.20913,-20.092287 9.50705,-29.31327 6.29731,-9.220982 14.301118,-16.724058 24.013145,-22.505474 9.712027,-5.781865 19.707871,-8.677378 29.989775,-8.682634 3.94225,-0.06382 7.64499,0.667453 11.10483,2.213607 3.46021,1.54589 5.28519,4.577528 5.46659,9.100848 0.3884,5.858601 -3.43829,12.599731 -11.47424,20.218436 -8.03616,7.618705 -22.998014,15.045946 -44.8833,22.278723 l -0.517017,5.091464 c -0.216983,4.3447 1.127903,7.43107 4.040083,9.26078 2.911431,1.82978 6.306699,2.73866 10.196315,2.7241 8.447624,-0.40763 17.527451,-0.65473 36.432679,-10.15878 11.92173,-5.991787 32.97584,-19.915838 53.52239,-43.451456 v -5.571257 c 1.9e-4,-3.262971 -0.87172,-6.520987 -2.50275,-9.347122 -1.63127,-2.825686 -4.01831,-5.212509 -6.84407,-6.84407 L 99.34657,2.8623369 c -2.697892,-1.556702 -5.7902,-2.42361396 -8.90413,-2.49659496 -0.212411,-0.0047 -0.426773,-0.0083 -0.640085,-0.0072 z M 170.13497,60.100079 v 4.009224 z m -69.93937,-3.97844 c -0.18696,0.002 -0.38299,0.01825 -0.59083,0.08207 -6.00208,1.522014 -11.919472,4.830185 -17.758702,9.918507 -5.838854,5.088472 -10.46211,11.477987 -13.866387,19.173276 10.404295,-3.800567 18.718272,-8.565505 24.941177,-14.297366 6.22268,-5.731184 9.368142,-9.802127 9.439472,-12.212301 -0.005,-0.84619 -0.25536,-1.533877 -0.75684,-2.066068 -0.37662,-0.398468 -0.84799,-0.596335 -1.40811,-0.59086 z"
     fill="#f63f0e"
     stroke-width="9.11812"
     id="path1" />
</svg>
